PARTICIPANTS: use this file for creating the class diagram in mastery task 01
@startuml

class CatalogDao {
- dynamoDbMapper: DynamoDBMapper
}


class PublishingStatusDao {
- dynamoDbMapper: DynamoDBMapper
}

class PublishingStatusItem{
- @DynamoDBHashKey publishingRecordId: String
- @DynamoDBRangeKey status: PublishingRecordStatus
- statusMessage: String
- bookId: String

}
class CatalogItemVersion {
- @DynamoDBHashKey bookId: String
- @DynamoDBRangeKey version: int
- inactive: boolean
- author: String
- text: String
- genre:  BookGenre
}

class GetBookActivity {
 + execute(GetBookRequest): GetBookResponse
}

class RemoveBookFromCatalogActivity {
 + execute(RemoveBookFromCatalogRequest): RemoveBookFromCatalogResponse
}

class SubmitBookForPublishingActivity {
 + execute(SubmitBookForPublishingRequest): SubmitBookForPublishingResponse
}

class RecommendationsServiceClient {
}

class BookNotFoundException {
}

CatalogDao o-- CatalogItemVersion

PublishingStatusItem o-- PublishingStatusDao

CatalogDao o-- BookNotFoundException

GetBookActivity o-- CatalogDao

GetBookActivity o-- RecommendationsServiceClient

SubmitBookForPublishingActivity o-- PublishingStatusDao







@enduml